<svg width="81" height="21" viewBox="0 0 81 21" fill="none" xmlns="http://www.w3.org/2000/svg">
<path d="M6.11213 21H1.94013C1.58546 21 1.32413 20.9254 1.15613 20.776C1.0068 20.608 0.932129 20.3467 0.932129 19.992V1.84803C0.932129 1.49336 1.0068 1.24136 1.15613 1.09203C1.32413 0.924027 1.58546 0.840027 1.94013 0.840027H6.44813C6.7468 0.840027 6.98946 0.90536 7.17613 1.03603C7.38146 1.16669 7.56813 1.38136 7.73613 1.68003L10.2561 6.24403C10.3495 6.41203 10.4241 6.53336 10.4801 6.60803C10.5548 6.68269 10.6481 6.72003 10.7601 6.72003H11.0121C11.1241 6.72003 11.2081 6.68269 11.2641 6.60803C11.3388 6.53336 11.4228 6.41203 11.5161 6.24403L14.0081 1.68003C14.1761 1.38136 14.3535 1.16669 14.5401 1.03603C14.7455 0.90536 14.9975 0.840027 15.2961 0.840027H19.8321C20.1868 0.840027 20.4388 0.924027 20.5881 1.09203C20.7561 1.24136 20.8401 1.49336 20.8401 1.84803V19.992C20.8401 20.3467 20.7561 20.608 20.5881 20.776C20.4388 20.9254 20.1868 21 19.8321 21H15.5201C15.1655 21 14.9041 20.9254 14.7361 20.776C14.5868 20.608 14.5121 20.3467 14.5121 19.992V10.136L12.8601 13.188C12.6921 13.5054 12.4868 13.7387 12.2441 13.888C12.0201 14.0187 11.7308 14.084 11.3761 14.084H10.2561C9.90146 14.084 9.6028 14.0187 9.36013 13.888C9.13613 13.7387 8.94013 13.5054 8.77213 13.188L7.12013 10.136V19.992C7.12013 20.3467 7.03613 20.608 6.86813 20.776C6.7188 20.9254 6.4668 21 6.11213 21Z" fill="#4441EB"/>
<path d="M32.0019 6.72003L30.6858 10.976H35.0818L33.7659 6.72003C33.6912 6.55203 33.6072 6.43069 33.5138 6.35603C33.4392 6.28136 33.3458 6.24403 33.2338 6.24403H32.5338C32.4218 6.24403 32.3192 6.28136 32.2258 6.35603C32.1512 6.43069 32.0765 6.55203 32.0019 6.72003ZM30.4058 19.992C30.4058 20.3467 30.3218 20.608 30.1538 20.776C30.0045 20.9254 29.7525 21 29.3978 21H25.2818C24.9272 21 24.6658 20.9254 24.4978 20.776C24.3485 20.608 24.2738 20.3467 24.2738 19.992V12.6C24.2738 12.04 24.3578 11.396 24.5258 10.668C24.7125 9.94003 24.9925 9.09069 25.3658 8.12003L27.8018 1.76403C27.9138 1.44669 28.0818 1.21336 28.3058 1.06403C28.5485 0.914694 28.8565 0.840027 29.2298 0.840027H36.7618C37.1165 0.840027 37.4058 0.914694 37.6298 1.06403C37.8725 1.21336 38.0499 1.44669 38.1618 1.76403L40.5979 8.12003C40.9712 9.09069 41.2418 9.94003 41.4098 10.668C41.5965 11.396 41.6898 12.04 41.6898 12.6V19.992C41.6898 20.3467 41.6059 20.608 41.4379 20.776C41.2885 20.9254 41.0365 21 40.6819 21H36.4538C36.0805 21 35.8005 20.9254 35.6138 20.776C35.4458 20.608 35.3619 20.3467 35.3619 19.992V16.072H30.4058V19.992Z" fill="#4441EB"/>
<path d="M54.656 21H50.12C49.7654 21 49.504 20.9254 49.336 20.776C49.1867 20.608 49.112 20.3467 49.112 19.992V16.408L44.828 10.668C44.3987 10.0894 44.1094 9.58536 43.96 9.15603C43.8294 8.72669 43.764 8.08269 43.764 7.22403V1.84803C43.764 1.49336 43.8387 1.24136 43.988 1.09203C44.156 0.924027 44.4174 0.840027 44.772 0.840027H49.084C49.4387 0.840027 49.6907 0.924027 49.84 1.09203C50.008 1.24136 50.092 1.49336 50.092 1.84803V6.44003C50.092 6.62669 50.1014 6.82269 50.12 7.02803C50.1387 7.23336 50.2134 7.42936 50.344 7.61603L51.632 9.63203C51.7254 9.80003 51.8187 9.92136 51.912 9.99603C52.024 10.0707 52.1547 10.108 52.304 10.108H52.584C52.7334 10.108 52.8547 10.0707 52.948 9.99603C53.06 9.92136 53.1627 9.80003 53.256 9.63203L54.544 7.61603C54.6747 7.42936 54.7494 7.23336 54.768 7.02803C54.7867 6.82269 54.796 6.62669 54.796 6.44003V1.84803C54.796 1.49336 54.8707 1.24136 55.02 1.09203C55.188 0.924027 55.4494 0.840027 55.804 0.840027H59.976C60.3307 0.840027 60.5827 0.924027 60.732 1.09203C60.9 1.24136 60.984 1.49336 60.984 1.84803V7.22403C60.984 8.08269 60.9094 8.72669 60.76 9.15603C60.6107 9.58536 60.3307 10.0894 59.92 10.668L55.664 16.436V19.992C55.664 20.3467 55.58 20.608 55.412 20.776C55.2627 20.9254 55.0107 21 54.656 21Z" fill="#4441EB"/>
<path d="M70.7753 6.72003L69.4593 10.976H73.8553L72.5393 6.72003C72.4646 6.55203 72.3806 6.43069 72.2873 6.35603C72.2126 6.28136 72.1193 6.24403 72.0073 6.24403H71.3073C71.1953 6.24403 71.0926 6.28136 70.9993 6.35603C70.9246 6.43069 70.85 6.55203 70.7753 6.72003ZM69.1793 19.992C69.1793 20.3467 69.0953 20.608 68.9273 20.776C68.778 20.9254 68.526 21 68.1713 21H64.0553C63.7006 21 63.4393 20.9254 63.2713 20.776C63.122 20.608 63.0473 20.3467 63.0473 19.992V12.6C63.0473 12.04 63.1313 11.396 63.2993 10.668C63.486 9.94003 63.7659 9.09069 64.1393 8.12003L66.5753 1.76403C66.6873 1.44669 66.8553 1.21336 67.0793 1.06403C67.322 0.914694 67.63 0.840027 68.0033 0.840027H75.5353C75.89 0.840027 76.1793 0.914694 76.4033 1.06403C76.646 1.21336 76.8233 1.44669 76.9353 1.76403L79.3713 8.12003C79.7446 9.09069 80.0153 9.94003 80.1833 10.668C80.37 11.396 80.4633 12.04 80.4633 12.6V19.992C80.4633 20.3467 80.3793 20.608 80.2113 20.776C80.062 20.9254 79.81 21 79.4553 21H75.2273C74.854 21 74.5739 20.9254 74.3873 20.776C74.2193 20.608 74.1353 20.3467 74.1353 19.992V16.072H69.1793V19.992Z" fill="#4441EB"/>
</svg>
